Coordinates
version=1
nRows=26
nColumns=24
inDegrees=yes

Units are S.I. units (second, meters, Newtons, ...)
Angles are in degrees.

endheader
time	pelvis_tilt	pelvis_list	pelvis_rotation	pelvis_tx	pelvis_ty	pelvis_tz	hip_flexion_r	hip_adduction_r	hip_rotation_r	knee_angle_r	ankle_angle_r	subtalar_angle_r	mtp_angle_r	hip_flexion_l	hip_adduction_l	hip_rotation_l	knee_angle_l	ankle_angle_l	subtalar_angle_l	mtp_angle_l	lumbar_extension	lumbar_bending	lumbar_rotation
      0.01000000	     74.81103434	      0.10871303	     -1.41504657	      0.56494875	      0.96652300	     -0.29780813	     -6.98201289	    -12.81517757	     -7.93913195	    -63.47151176	    -25.77506507	      0.00000000	      0.00000000	      7.08101292	     -4.38782040	      9.67251470	    -12.93143691	    -42.71372210	      0.00000000	      0.00000000	      0.00000000	      0.00000000	      0.00000000
      0.02000000	     74.81540506	      0.10967004	     -1.41815357	      0.56494752	      0.96647429	     -0.29777010	     -7.00026198	    -12.81045803	     -7.93990510	    -63.47958831	    -25.76020633	      0.00000000	      0.00000000	      7.07745180	     -4.40219516	      9.66024101	    -12.91759044	    -42.73309861	      0.00000000	      0.00000000	      0.00000000	      0.00000000	      0.00000000
      0.03000000	     74.82152182	      0.10756678	     -1.42111374	      0.56494999	      0.96644937	     -0.29776769	     -7.01754943	    -12.80380812	     -7.94081676	    -63.48577465	    -25.74741307	      0.00000000	      0.00000000	      7.07801599	     -4.40929570	      9.64503559	    -12.90340141	    -42.74787686	      0.00000000	      0.00000000	      0.00000000	      0.00000000	      0.00000000
      0.04000000	     74.82779348	      0.10469785	     -1.42331270	      0.56495721	      0.96644673	     -0.29777545	     -7.03402897	    -12.79749139	     -7.94097861	    -63.49021205	    -25.73880038	      0.00000000	      0.00000000	      7.08389224	     -4.41130003	      9.62812140	    -12.88917650	    -42.75459289	      0.00000000	      0.00000000	      0.00000000	      0.00000000	      0.00000000
      0.05000000	     74.83238247	      0.10289165	     -1.42433701	      0.56496252	      0.96645312	     -0.29777366	     -7.04921081	    -12.79334866	     -7.93942218	    -63.49326675	    -25.73703413	      0.00000000	      0.00000000	      7.09559944	     -4.41000861	      9.61160459	    -12.87456783	    -42.74918545	      0.00000000	      0.00000000	      0.00000000	      0.00000000	      0.00000000
      0.06000000	     74.83402838	      0.10320404	     -1.42432728	      0.56496085	      0.96645348	     -0.29776292	     -7.06185877	    -12.79183009	     -7.93555572	    -63.49572382	    -25.74450919	      0.00000000	      0.00000000	      7.11249413	     -4.40652564	      9.59814165	    -12.85834098	    -42.72859473	      0.00000000	      0.00000000	      0.00000000	      0.00000000	      0.00000000
      0.07000000	     74.83266862	      0.10597868	     -1.42379331	      0.56495635	      0.96644819	     -0.29775691	     -7.07070686	    -12.79216437	     -7.92930365	    -63.49871505	    -25.76252120	      0.00000000	      0.00000000	      7.13323929	     -4.40148541	      9.58999207	    -12.83885542	    -42.69229330	      0.00000000	      0.00000000	      0.00000000	      0.00000000	      0.00000000
      0.08000000	     74.82917400	      0.11077882	     -1.42294493	      0.56495587	      0.96644856	     -0.29776068	     -7.07544920	    -12.79337635	     -7.92096315	    -63.50326321	    -25.79061183	      0.00000000	      0.00000000	      7.15625785	     -4.39535557	      9.58784652	    -12.81520281	    -42.64323083	      0.00000000	      0.00000000	      0.00000000	      0.00000000	      0.00000000
      0.09000000	     74.82444744	      0.11670287	     -1.42131372	      0.56496112	      0.96645429	     -0.29776516	     -7.07716019	    -12.79513704	     -7.91112640	    -63.50970984	    -25.82629168	      0.00000000	      0.00000000	      7.17959963	     -4.38885654	      9.59024163	    -12.78833190	    -42.58764354	      0.00000000	      0.00000000	      0.00000000	      0.00000000	      0.00000000
      0.10000000	     74.81924980	      0.12296357	     -1.41838026	      0.56496915	      0.96645346	     -0.29776099	     -7.07801511	    -12.79756997	     -7.90075193	    -63.51745423	    -25.86535193	      0.00000000	      0.00000000	      7.20133573	     -4.38290664	      9.59399046	    -12.76091909	    -42.53351301	      0.00000000	      0.00000000	      0.00000000	      0.00000000	      0.00000000
      0.11000000	     74.81471767	      0.12909175	     -1.41442065	      0.56497554	      0.96644410	     -0.29774917	     -7.08057598	    -12.80048606	     -7.89099004	    -63.52521174	    -25.90278965	      0.00000000	      0.00000000	      7.22049939	     -4.37804379	      9.59540384	    -12.73592908	    -42.48825295	      0.00000000	      0.00000000	      0.00000000	      0.00000000	      0.00000000
      0.12000000	     74.81216344	      0.13466106	     -1.41031124	      0.56497777	      0.96643560	     -0.29773794	     -7.08687091	    -12.80327545	     -7.88256542	    -63.53159139	    -25.93402467	      0.00000000	      0.00000000	      7.23705325	     -4.37430898	      9.59172716	    -12.71526374	    -42.45669763	      0.00000000	      0.00000000	      0.00000000	      0.00000000	      0.00000000
      0.13000000	     74.81235437	      0.13903418	     -1.40678922	      0.56497578	      0.96643298	     -0.29773386	     -7.09768087	    -12.80533439	     -7.87529187	    -63.53570120	    -25.95593199	      0.00000000	      0.00000000	      7.25110781	     -4.37164265	      9.58221166	    -12.69918951	    -42.44009525	      0.00000000	      0.00000000	      0.00000000	      0.00000000	      0.00000000
      0.14000000	     74.81546217	      0.14157766	     -1.40426746	      0.56497027	      0.96643390	     -0.29773771	     -7.11242106	    -12.80615025	     -7.86822951	    -63.53755715	    -25.96739115	      0.00000000	      0.00000000	      7.26277233	     -4.37009659	      9.56844017	    -12.68625967	    -42.43620999	      0.00000000	      0.00000000	      0.00000000	      0.00000000	      0.00000000
      0.15000000	     74.82141884	      0.14215383	     -1.40307004	      0.56496273	      0.96643504	     -0.29774503	     -7.12960885	    -12.80514984	     -7.86024119	    -63.53810159	    -25.96929295	      0.00000000	      0.00000000	      7.27252211	     -4.36979780	      9.55382751	    -12.67372589	    -42.44032418	      0.00000000	      0.00000000	      0.00000000	      0.00000000	      0.00000000
      0.16000000	     74.82966310	      0.14136780	     -1.40339561	      0.56495467	      0.96643381	     -0.29774768	     -7.14757225	    -12.80193567	     -7.85042888	    -63.53880460	    -25.96409282	      0.00000000	      0.00000000	      7.28104253	     -4.37099693	      9.54253661	    -12.65863607	    -42.44678116	      0.00000000	      0.00000000	      0.00000000	      0.00000000	      0.00000000
      0.17000000	     74.83859057	      0.14032043	     -1.40499968	      0.56494855	      0.96642710	     -0.29774138	     -7.16493778	    -12.79683491	     -7.83832440	    -63.54101395	    -25.95511052	      0.00000000	      0.00000000	      7.28854670	     -4.37412217	      9.53822513	    -12.63919525	    -42.45060414	      0.00000000	      0.00000000	      0.00000000	      0.00000000	      0.00000000
      0.18000000	     74.84599318	      0.13996234	     -1.40720757	      0.56494750	      0.96641654	     -0.29773180	     -7.18077743	    -12.79108383	     -7.82406265	    -63.54534030	    -25.94582635	      0.00000000	      0.00000000	      7.29476516	     -4.37935838	      9.54298498	    -12.61537122	    -42.44866248	      0.00000000	      0.00000000	      0.00000000	      0.00000000	      0.00000000
      0.19000000	     74.85045746	      0.14053828	     -1.40944172	      0.56494839	      0.96641137	     -0.29772689	     -7.19458892	    -12.78628396	     -7.80864197	    -63.55131992	    -25.93931155	      0.00000000	      0.00000000	      7.29985401	     -4.38586735	      9.55671221	    -12.58841594	    -42.44004470	      0.00000000	      0.00000000	      0.00000000	      0.00000000	      0.00000000
      0.20000000	     74.85237938	      0.14168382	     -1.41165508	      0.56494463	      0.96641647	     -0.29772514	     -7.20610866	    -12.78360139	     -7.79400698	    -63.55745812	    -25.93775331	      0.00000000	      0.00000000	      7.30492408	     -4.39171680	      9.57711245	    -12.56012593	    -42.42573519	      0.00000000	      0.00000000	      0.00000000	      0.00000000	      0.00000000
      0.21000000	     74.85360920	      0.14314429	     -1.41412447	      0.56494109	      0.96642618	     -0.29772039	     -7.21518420	    -12.78344896	     -7.78247362	    -63.56183424	    -25.94202027	      0.00000000	      0.00000000	      7.31145200	     -4.39518040	      9.60044915	    -12.53252271	    -42.40790136	      0.00000000	      0.00000000	      0.00000000	      0.00000000	      0.00000000
      0.22000000	     74.85566481	      0.14518773	     -1.41685161	      0.56494597	      0.96643171	     -0.29771643	     -7.22227651	    -12.78576468	     -7.77550305	    -63.56326646	    -25.95136278	      0.00000000	      0.00000000	      7.32020917	     -4.39626771	      9.62277207	    -12.50773854	    -42.38903755	      0.00000000	      0.00000000	      0.00000000	      0.00000000	      0.00000000
      0.23000000	     74.85854212	      0.14809447	     -1.41932656	      0.56495164	      0.96642826	     -0.29772154	     -7.22879894	    -12.79022769	     -7.77280197	    -63.56200609	    -25.96348427	      0.00000000	      0.00000000	      7.33083578	     -4.39663979	      9.64108851	    -12.48755097	    -42.37117306	      0.00000000	      0.00000000	      0.00000000	      0.00000000	      0.00000000
      0.24000000	     74.86172856	      0.15161126	     -1.42085969	      0.56494742	      0.96641838	     -0.29773324	     -7.23621839	    -12.79596529	     -7.77253316	    -63.55913429	    -25.97512847	      0.00000000	      0.00000000	      7.34229935	     -4.39806864	      9.65402686	    -12.47262972	    -42.35535751	      0.00000000	      0.00000000	      0.00000000	      0.00000000	      0.00000000
      0.25000000	     74.86537137	      0.15513647	     -1.42094190	      0.56493665	      0.96640774	     -0.29774173	     -7.24518749	    -12.80131754	     -7.77218051	    -63.55566418	    -25.98303093	      0.00000000	      0.00000000	      7.35347831	     -4.40123504	      9.66180897	    -12.46216366	    -42.34157933	      0.00000000	      0.00000000	      0.00000000	      0.00000000	      0.00000000
      0.26000000	     74.86993004	      0.15820085	     -1.41934740	      0.56492931	      0.96639936	     -0.29774288	     -7.25589002	    -12.80425184	     -7.76939550	    -63.55234821	    -25.98489604	      0.00000000	      0.00000000	      7.36346973	     -4.40568072	      9.66568446	    -12.45416385	    -42.32908911	      0.00000000	      0.00000000	      0.00000000	      0.00000000	      0.00000000
